<?xml version="1.0" encoding="utf-8"?>
<!-- Generator: Adobe Illustrator 25.0.0, SVG Export Plug-In . SVG Version: 6.00 Build 0)  -->
<svg version="1.1" id="katman_1" xmlns="http://www.w3.org/2000/svg" xmlns:xlink="http://www.w3.org/1999/xlink" x="0px" y="0px"
	 viewBox="0 0 4548.7 3097.3" style="enable-background:new 0 0 4548.7 3097.3;" xml:space="preserve">
<style type="text/css">
	.st0{fill:#00ACD2;}
	.st1{fill:#C8E9EB;}
	.st2{fill:#662D91;}
</style>
<path class="st0" d="M2991,545.6c-299.4-258.5-961.9-386.5-1458.4-15.4c-465.8,312.2-488.8,882.9-488.8,882.9
	c79.3,312.2,394.1,611.6,1000.6,465.8C1972.8,1459.1,2113.3,397.2,2991,545.6L2991,545.6z"/>
<path class="st1" d="M2679.2,1560.7c-327.6,271.9-1324.9,686.8-1635.3-147.6c-74.1,388.5,131.6,1035.2,701.2,1279.6
	c503.3,247.2,1027.7-39.1,1027.7-39.1C3003.5,2428.8,3108.7,2013,2679.2,1560.7"/>
<path class="st2" d="M2087.4,1179.3c399.3,147.8,1252.8,788.3,685.4,1474.3c373.5-130.1,811.6-627.8,738.5-1243.2
	C3473.8,850.9,2991,545.6,2991,545.6C2681,458.2,2264.3,581.1,2087.4,1179.3"/>
</svg>
