<svg width="431" height="131" viewBox="0 0 431 131" fill="#312e81" xmlns="http://www.w3.org/2000/svg">
<g clip-path="url(#clip0_325_98)">
<path d="M320.687 86.2818C318.332 82.8318 315.376 80.039 311.762 78.0128C308.148 75.9867 304.315 74.5081 300.208 73.5772C296.101 72.6462 292.268 71.77 288.655 70.9486C285.041 70.1272 282.084 69.1963 279.729 68.101C277.375 67.0058 276.225 65.363 276.225 63.063C276.225 60.2702 277.375 58.3535 279.62 57.2035C281.919 56.0536 284.219 55.5059 286.629 55.5059C288.928 55.5059 291.064 55.7798 293.035 56.3821C295.499 57.094 298.894 59.3392 299.825 59.8868C300.756 60.4345 302.453 61.6392 304.151 62.0225C310.886 63.7201 315.868 60.2154 318.442 53.5345C320.03 49.4274 320.632 46.087 320.632 46.087C320.413 45.868 317.894 43.1299 313.788 40.5561C310.831 38.6942 307.764 37.3252 304.808 36.5038C298.62 34.7514 292.487 33.8752 286.41 33.8752C281.591 33.8752 276.882 34.4776 272.228 35.6824C267.573 36.8871 263.412 38.749 259.798 41.268C256.184 43.787 253.282 47.0179 251.092 50.906C248.901 54.8488 247.752 59.5035 247.752 64.9249C247.752 70.7296 248.901 75.3843 251.256 78.889C253.61 82.3937 256.567 85.0223 260.181 86.9389C263.795 88.8556 267.628 90.2793 271.735 91.2103C275.842 92.1412 279.674 93.0722 283.288 93.8388C286.902 94.6602 289.859 95.7007 292.214 96.8507C294.568 98.0554 295.718 99.8626 295.718 102.272C295.718 104.791 294.404 106.543 291.721 107.474C289.038 108.405 286.081 108.898 282.796 108.898C278.47 108.898 274.746 108.022 271.516 106.324C268.285 104.627 265.328 102.108 262.7 98.8221L245.452 117.989C249.997 122.643 255.582 125.929 262.152 127.736C268.723 129.598 275.239 130.474 281.646 130.474C286.574 130.474 291.557 129.981 296.594 129.05C301.632 128.119 306.177 126.477 310.229 124.122C314.281 121.767 317.566 118.7 320.194 114.812C322.768 110.979 324.082 106.051 324.082 100.136C324.191 94.3864 323.042 89.7317 320.687 86.2818Z" fill="#312e81"/>
<path d="M230.832 60.5987C229.299 54.575 226.835 49.537 223.549 45.5394C220.264 41.5418 215.938 38.6942 210.627 36.7228C205.425 34.7514 198.854 33.8752 191.133 33.8752C183.632 33.8752 177.116 35.2443 171.531 37.3252C158.663 42.1442 151.599 48.2775 151.435 48.4965C151.435 48.4965 152.311 53.0417 154.173 56.9845C157.239 63.3368 162.441 66.3487 168.957 64.1582C170.6 63.6106 172.407 62.3511 173.338 61.7487C180.456 57.1488 184.727 56.3821 189.217 56.3821C193.214 56.3821 196.773 57.3678 199.949 59.5583C203.125 61.694 204.768 65.0892 204.768 69.5796V71.0034C198.088 71.0034 191.352 71.3867 184.398 72.1534C177.444 72.8653 171.093 74.2891 165.453 76.5343C159.703 78.67 155.104 81.8461 151.49 85.8437C147.876 89.8413 146.069 95.1531 146.069 101.834C146.069 107.255 147.109 111.801 149.135 115.47C151.161 119.139 153.844 122.041 157.13 124.286C160.415 126.531 163.974 128.065 167.917 129.105C171.804 130.036 175.583 130.529 179.306 130.529C184.727 130.529 189.874 129.488 194.583 127.462C199.292 125.436 202.797 122.424 205.151 118.646H205.644V128.393H233.132V82.2842C233.077 73.851 232.365 66.6772 230.832 60.5987ZM205.699 91.5389C205.699 97.3983 204.165 101.889 200.88 105.284C197.595 108.679 192.995 110.322 186.862 110.322C185.329 110.322 183.906 110.212 182.263 109.939C180.73 109.61 179.306 109.117 178.047 108.405C176.842 107.693 175.802 106.653 174.98 105.448C174.159 104.243 173.776 102.765 173.776 101.067C173.776 98.2745 174.597 96.1388 176.349 94.496C178.101 92.8531 180.237 91.5388 182.92 90.7174C185.603 89.896 188.56 89.2936 191.955 88.9651C195.24 88.6365 198.635 88.5817 201.92 88.5817H205.808V91.5389H205.699Z" fill="#312e81"/>
<path d="M130.135 103.641C130.135 103.641 125.754 106.16 120.333 105.174C119.293 105.01 118.308 104.627 117.322 104.134C125.426 93.2912 130.244 79.8747 130.244 65.3082C130.244 29.3301 101.059 0.142334 65.0844 0.142334C29.1094 0.142334 -0.0756836 29.3301 -0.0756836 65.3082C-0.0756836 101.286 29.1094 130.474 65.0844 130.474C76.4737 130.474 87.1512 127.517 96.4597 122.424C99.5261 125.655 103.797 129.05 108.999 130.091C118.8 131.953 125.919 127.462 128.821 121.439C131.285 116.181 131.449 109.939 130.135 103.641ZM65.0296 102.929C44.3317 102.929 27.4668 86.0628 27.4668 65.363C27.4668 44.6632 44.3317 27.7968 65.0296 27.7968C85.7275 27.7968 102.647 44.6085 102.647 65.3082C102.647 71.6605 101.059 77.6843 98.2119 82.9414C97.3906 81.9009 96.6788 80.9152 96.186 80.2581C94.2695 77.6295 92.2982 74.9462 90.3818 72.2082C87.863 68.6487 82.0588 61.5297 74.0644 59.9964C64.263 58.1345 57.1447 62.6249 54.2426 68.6487C51.7786 73.9058 51.6143 80.1485 52.8737 86.3913C52.8737 86.3913 57.2542 83.8723 62.6751 84.858C66.6175 85.5699 70.341 88.5818 75.1048 94.496C75.4881 94.9888 77.1308 97.1793 79.321 100.027C74.9405 101.889 70.1219 102.929 65.0296 102.929Z" fill="#312e81"/>
<path d="M427.736 62.2964C425.491 56.2726 422.315 51.0155 418.317 46.7442C414.32 42.418 409.502 39.1324 403.862 36.8871C398.222 34.6419 392.089 33.4919 385.299 33.4919C378.345 33.4919 371.775 34.6419 365.806 36.9967C359.838 39.3514 354.636 42.6371 350.255 46.8537C345.875 51.1798 342.37 56.2726 339.797 62.3511C337.223 68.3749 335.909 75.1653 335.909 82.6676C335.909 90.3341 337.114 97.2341 339.797 103.258C342.48 109.282 346.039 114.32 350.639 118.427C355.238 122.534 360.604 125.6 366.737 127.736C372.87 129.872 379.331 130.912 386.23 130.912C395.429 130.912 403.643 129.16 410.597 125.874C417.551 122.479 423.191 117.66 427.517 111.417L427.462 111.362L427.517 111.308C427.517 111.308 426.367 108.022 424.176 104.134C420.617 97.8364 415.087 95.0436 408.571 97.7269C406.928 98.384 405.45 99.8078 404.574 100.52C403.917 101.067 401.234 103.477 398.55 105.01C395.32 106.817 391.268 107.693 386.449 107.693C383.766 107.693 381.138 107.201 378.674 106.379C376.21 105.558 373.965 104.353 371.884 102.765C369.913 101.232 368.27 99.3698 366.956 97.3436C365.751 95.3174 364.93 92.9627 364.711 90.3889H430.911C431.021 89.2389 431.13 88.1437 431.13 86.8842V83.2152C431.13 75.4391 429.981 68.4296 427.736 62.2964ZM364.711 71.6058C364.821 69.3606 365.423 67.1154 366.573 64.9249C367.723 62.7892 369.146 60.9273 370.953 59.2845C372.815 57.6417 374.95 56.4369 377.414 55.506C379.879 54.575 382.562 54.1917 385.518 54.1917C391.487 54.1917 395.977 55.9441 398.934 59.3393C401.891 62.7345 403.424 66.8416 403.424 71.6605H364.711V71.6058Z" fill="#312e81"/>
</g>
<defs>
<clipPath id="clip0_325_98">
<rect width="431" height="131" fill="#312e81"/>
</clipPath>
</defs>
</svg>
